<svg width="58" height="55" viewBox="0 0 58 55" fill="none" xmlns="http://www.w3.org/2000/svg">
<path d="M11.7501 52L36.5419 28.7061L48.2087 40.353M11.7501 52H40.917C45.7495 52 49.667 48.0891 49.667 43.2648V28.7061M11.7501 52C6.91754 52 3 48.0891 3 43.2648V14.1474C3 9.32306 6.91754 5.41216 11.7501 5.41216H30.7086M46.7504 19.4713L46.7504 11.2356M46.7504 11.2356L46.7504 3M46.7504 11.2356L38.5007 11.2356M46.7504 11.2356L55 11.2356M20.5001 18.515C20.5001 20.9272 18.5414 22.8826 16.1251 22.8826C13.7088 22.8826 11.7501 20.9272 11.7501 18.515C11.7501 16.1028 13.7088 14.1474 16.1251 14.1474C18.5414 14.1474 20.5001 16.1028 20.5001 18.515Z" stroke="#41415A" stroke-width="5" stroke-linecap="round" stroke-linejoin="round"/>
</svg>
